<svg xmlns="http://www.w3.org/2000/svg" width="99" height="30" viewBox="0 0 99 30">
    <path fill="#FFF" fill-rule="evenodd" d="M5.346 13.668C2.168 13.668 0 11.59 0 8.608c0-2.984 2.168-5.061 5.346-5.061 1.321 0 2.188.185 2.91.596V7.62h-.123c-.578-.782-1.383-1.152-2.436-1.152-1.486 0-2.353.802-2.353 2.14 0 1.337.867 2.139 2.353 2.139 1.074 0 1.879-.391 2.436-1.173h.124v3.518c-.681.411-1.569.576-2.91.576zm7.678-5.06c0 1.275.764 2.139 1.9 2.139 1.135 0 1.898-.864 1.898-2.14 0-1.275-.763-2.14-1.898-2.14-1.136 0-1.9.865-1.9 2.14zm4.129 3.682c-.558.884-1.507 1.378-2.787 1.378-2.704 0-4.686-2.14-4.686-5.06 0-2.922 1.982-5.062 4.686-5.062 1.28 0 2.23.494 2.787 1.379h.041l.124-1.173h2.724v9.71h-2.724l-.124-1.172h-.041zm8.607-4.074v5.246h-3.302v-9.71h2.725l.123 1.214h.042c.557-.926 1.506-1.42 2.765-1.42 2.312 0 3.675 1.502 3.675 4.094v5.822h-3.303v-5.43c0-1.03-.475-1.564-1.28-1.564-.95 0-1.445.596-1.445 1.748zm13.272 2.53c1.135 0 1.898-.863 1.898-2.139 0-1.275-.763-2.14-1.898-2.14-1.136 0-1.9.865-1.9 2.14 0 1.276.764 2.14 1.9 2.14zm2.27-5.821l.124-1.173h2.725v9.71h-2.725l-.124-1.172h-.041c-.558.884-1.507 1.378-2.787 1.378-2.704 0-4.686-2.14-4.686-5.06 0-2.922 1.982-5.062 4.686-5.062 1.28 0 2.23.494 2.787 1.379h.041zm4.863 8.537V0h3.302v13.462h-3.302zM5.243 27.08c1.136 0 1.9-.864 1.9-2.14 0-1.275-.764-2.14-1.9-2.14-1.135 0-1.899.865-1.899 2.14 0 1.276.764 2.14 1.9 2.14zm2.27-5.822l.125-1.173h2.724v9.71H7.638l-.124-1.173h-.042C6.915 29.506 5.966 30 4.686 30 1.982 30 0 27.86 0 24.94c0-2.922 1.982-5.062 4.686-5.062 1.28 0 2.229.494 2.786 1.379h.042zm4.541 3.682c0-2.983 2.168-5.06 5.346-5.06 1.322 0 2.189.185 2.91.596v3.477h-.123c-.578-.782-1.383-1.152-2.435-1.152-1.487 0-2.354.802-2.354 2.14 0 1.336.867 2.139 2.354 2.139 1.073 0 1.878-.391 2.435-1.173h.124v3.518c-.681.411-1.569.576-2.91.576-3.18 0-5.347-2.078-5.347-5.06zm14.923 2.14c1.136 0 1.9-.864 1.9-2.14 0-1.275-.764-2.14-1.9-2.14-1.135 0-1.899.865-1.899 2.14 0 1.276.764 2.14 1.9 2.14zm2.27-5.822l.125-1.173h2.725v9.71h-2.725l-.124-1.173h-.041C28.649 29.506 27.7 30 26.42 30c-2.704 0-4.686-2.14-4.686-5.06 0-2.922 1.982-5.062 4.686-5.062 1.28 0 2.23.494 2.787 1.379h.04zm9.785 5.822c1.135 0 1.898-.864 1.898-2.14 0-1.275-.763-2.14-1.898-2.14-1.136 0-1.9.865-1.9 2.14 0 1.276.764 2.14 1.9 2.14zm1.816-6.378v-5.307h3.303v14.4h-2.725l-.124-1.173h-.041c-.558.885-1.507 1.379-2.787 1.379-2.704 0-4.686-2.14-4.686-5.06 0-2.922 1.982-5.062 4.686-5.062.97 0 1.755.289 2.333.823h.04zm11.455-1.954H49.31l2.23-3.538h3.446l-2.683 3.538zm-3.117 5.266h3.674c-.206-.925-.908-1.357-1.837-1.357-.825 0-1.61.452-1.837 1.357zm1.734-4.135c3.014 0 4.892 1.79 4.892 4.65v1.09h-6.626c.29 1.11 1.301 1.604 2.684 1.604 1.362 0 2.539-.37 3.261-1.07h.124v3.066c-.764.494-2.064.782-3.571.782-3.447 0-5.842-2.098-5.842-5.061 0-2.962 2.106-5.06 5.078-5.06zm18.06 0c2.272 0 3.593 1.502 3.593 4.094v5.822H69.27v-5.43c0-1.03-.434-1.564-1.197-1.564-.909 0-1.363.596-1.363 2.016v4.978h-3.302v-5.43c0-1.03-.434-1.564-1.198-1.564-.908 0-1.362.596-1.362 1.748v5.246h-3.303v-9.71h2.725l.124 1.235h.041c.516-.926 1.425-1.44 2.684-1.44 1.217 0 2.188.514 2.807 1.44h.041c.578-.947 1.507-1.44 3.014-1.44zm5.635 9.916v-9.71h3.303v9.71h-3.303zm1.651-14.627c1.156 0 1.961.803 1.961 1.955 0 1.152-.805 1.954-1.96 1.954-1.156 0-1.961-.802-1.961-1.954s.805-1.955 1.96-1.955zm6.688 8.846h3.674c-.206-.925-.908-1.357-1.837-1.357-.826 0-1.61.452-1.837 1.357zm1.734-4.135c3.013 0 4.892 1.79 4.892 4.65v1.09h-6.626c.289 1.11 1.3 1.604 2.683 1.604 1.362 0 2.54-.37 3.262-1.07h.123v3.066c-.763.494-2.064.782-3.57.782-3.448 0-5.842-2.098-5.842-5.061 0-2.962 2.105-5.06 5.078-5.06zm10.588 3.827c2.457.185 3.509 1.09 3.509 3.045 0 2.057-1.507 3.25-4.108 3.25-1.63 0-2.869-.288-3.653-.844v-2.92h.124c.805.802 1.94 1.213 3.385 1.213.805 0 1.259-.247 1.259-.7 0-.411-.33-.596-1.548-.699-2.374-.206-3.365-1.05-3.365-2.839 0-2.057 1.63-3.332 4.211-3.332 1.177 0 2.27.226 3.014.616v2.88h-.124c-.62-.616-1.63-.966-2.808-.966-.846 0-1.3.247-1.3.7 0 .328.29.514 1.404.596z"/>
</svg>
