<svg xmlns="http://www.w3.org/2000/svg" width="44" height="50" viewBox="0 0 44 50">
    <path fill="#616160" fill-rule="evenodd" d="M3.946 12.044c-.302-.983-.5-2.005-.5-2.92 0-2.136.928-3.405 2.916-3.405.339 0 .665-.01.977-.03-1.725 1.642-2.915 3.824-3.393 6.355zm38.269 6.63L29.689 9.192l-4.278 2.415 2.224-4.82c-4.838-3.471-8.681-4.34-11.73-4.34-1.84 0-3.54.343-5.05.967.052-.252.08-.527.08-.833 0-1.403.928-1.537 2.584-1.002L13.983.31C12.194-.225 9.61-.359 9.61 2.38c0 1.536-.397 2.004-3.247 2.004-2.85 0-4.308 1.87-4.308 4.742 0 1.867.702 4.005 1.667 5.876.183 7.146 5.243 10.753 9.732 10.753.862 0 1.657-.133 2.452-.534l-.067-.334c-5.83.334-10.735-3.34-10.735-10.285 0-7.08 5.036-10.819 10.67-10.819 3.18 0 6.56 1.135 10.073 3.54l-2.652 5.876.597.535 5.69-3.078 10.816 8.205-15.048 4.223c-.463 2.804-2.055 6.144-4.241 8.749l.199.2c2.85-1.469 5.103-6.812 5.235-7.88.507-.22 5.128-1.515 9.217-2.645.03.66.194 2.426.325 2.911.184.673.995 2.338 1.857 4.408-.597.467-1.724 1.069-2.518 1.336-.067 1.202.198 1.937.728 2.738-.2.401-1.392 1.002-1.855 1.069.397.2 1.06.869 1.193 1.335-.53.401-.717.867-.596 1.47.146.731.066 1.402-.2 1.736-.132.134-.265.2-.464.2-1.325 0-3.346-.266-4.804-.734v7.88c-.97-.205-1.88-.433-2.8-.678.163-.75.403-2.346.183-4.13-.332-2.538-1.856-4.942-1.856-4.942s-.663 2.67-.2 5.209c.266 1.607 1 2.995 1.486 3.76-1.725-.474-3.356-1.015-4.9-1.614.22-.778.537-2.306.366-4.083-.265-2.671-1.723-5.209-1.723-5.209s-.596 2.738-.265 5.41c.218 1.478.835 2.91 1.27 3.747-1.628-.647-3.153-1.36-4.575-2.124.204-.656.637-2.099.521-3.894-.198-2.538-1.258-5.01-1.258-5.01s-.73 2.606-.53 5.143c.11 1.542.623 2.856.987 3.607-1.53-.838-2.94-1.734-4.226-2.677.216-.57.703-1.857.588-3.6-.133-2.271-1.127-4.208-1.127-4.208s-.729 2.07-.596 4.341c.106 1.285.51 2.526.837 3.243-1.052-.79-2.022-1.608-2.906-2.449-.54-1.422-.778-3.042-.714-3.933.529-.134.994-.734.994-1.537 0-.935-.465-1.602-1.127-1.602-.663 0-1.192.667-1.192 1.536 0 .801.396 1.403.927 1.536-.125.753-.13 2.146.09 2.977-1.114-1.167-2.073-2.367-2.873-3.578-.066-1.135-.066-2.004-.598-3.34-.529-1.402-1.39-2.537-2.252-3.472-.2 1.068-.066 2.738.331 3.874.662 1.87 1.325 2.537 2.187 3.138.423.915.94 1.802 1.534 2.66-.677-.407-1.879-.955-2.66-1.123C1.59 32.432 0 32.766 0 32.766s1.258 1.136 2.916 1.537c1.289.309 2.577.16 3.182-.077.802 1.119 1.74 2.184 2.79 3.191-.758-.338-2.169-.767-3.189-.844-2.124-.16-4.043.268-4.043.268s1.79 1.201 3.91 1.335c1.678.126 3.006-.277 3.547-.549.927.87 1.935 1.692 3.01 2.466-1.558-.23-3.338.031-4.303.421-.265-.668-1.127-.935-2.12-.735-1.127.267-1.922.868-1.658 1.937.266 1.001 1.26 1.135 2.32.868.994-.267 1.657-.936 1.59-1.67 1.485-.26 4.1-.39 6.194.529.713.442 1.447.865 2.198 1.265-.996-.09-2.627-.11-4.216.21-2.519.534-4.838 1.87-4.838 1.87s2.982.467 5.633-.134c2.029-.41 3.35-1.278 3.869-1.713 1.627.842 3.331 1.586 5.076 2.222-1.048-.083-2.748.014-4.704.493-2.518.6-4.904 2.204-4.904 2.204s2.916.334 5.7-.334c2.424-.656 4.001-1.787 4.454-2.167 1.85.648 3.737 1.174 5.619 1.566-3.778.334-5.898 1.469-8.086 3.005 1.79.134 3.514.134 6.163-.534 1.79-.467 3.844-1.603 4.508-2.471v-7.386c1.823.323 2.818.374 3.511.374.53 0 .994-.134 1.392-.602.596-.801.616-1.739.463-2.604-.058-.335.267-.468.465-.801.332-.602 0-1.136-.332-1.47.266-.067 1.26-.735 1.26-1.469 0-.334-.795-1.27-.795-2.004.728-.334 1.26-.6 2.054-1.135.398-.267.663-.735.464-1.202-1.193-2.739-1.657-3.94-1.856-4.608-.118-.42-.237-2.182-.26-2.877 2.82-.777 5.099-1.398 5.099-1.398l.132-1.068z"/>
</svg>
